<svg width="1410" height="840" viewBox="0 0 1410 840" fill="none" xmlns="http://www.w3.org/2000/svg">
<g clip-path="url(#clip0_1_7983)">
<rect width="1410" height="840" fill="#191D20"/>
<path d="M1454.5 911L-160 706.5V911H1454.5Z" fill="#2C68B0"/>
<path d="M1609 255L624 -101H1609V255Z" fill="#FF4343"/>
<path d="M593.896 276.52V458H557.496V339.96L508.876 458H481.316L432.436 339.96V458H396.036V276.52H437.376L495.096 411.46L552.816 276.52H593.896ZM827.743 276.52V458H791.343V339.96L742.723 458H715.163L666.283 339.96V458H629.883V276.52H671.223L728.943 411.46L786.663 276.52H827.743ZM975.011 423.42H902.731L890.771 458H852.551L917.811 276.26H960.191L1025.45 458H986.971L975.011 423.42ZM965.131 394.3L938.871 318.38L912.611 394.3H965.131Z" fill="#F7F7F7"/>
<path d="M743.469 519.16V528.2H720.189V542.52H738.029V551.4H720.189V575H708.989V519.16H743.469ZM757.091 525.4C755.117 525.4 753.464 524.787 752.131 523.56C750.851 522.28 750.211 520.707 750.211 518.84C750.211 516.973 750.851 515.427 752.131 514.2C753.464 512.92 755.117 512.28 757.091 512.28C759.064 512.28 760.691 512.92 761.971 514.2C763.304 515.427 763.971 516.973 763.971 518.84C763.971 520.707 763.304 522.28 761.971 523.56C760.691 524.787 759.064 525.4 757.091 525.4ZM762.611 530.68V575H751.411V530.68H762.611ZM791.036 529.96C794.343 529.96 797.25 530.627 799.756 531.96C802.263 533.24 804.236 534.92 805.676 537V530.68H816.956V575.32C816.956 579.427 816.13 583.08 814.476 586.28C812.823 589.533 810.343 592.093 807.036 593.96C803.73 595.88 799.73 596.84 795.036 596.84C788.743 596.84 783.57 595.373 779.516 592.44C775.516 589.507 773.25 585.507 772.716 580.44H783.836C784.423 582.467 785.676 584.067 787.596 585.24C789.57 586.467 791.943 587.08 794.716 587.08C797.97 587.08 800.61 586.093 802.636 584.12C804.663 582.2 805.676 579.267 805.676 575.32V568.44C804.236 570.52 802.236 572.253 799.676 573.64C797.17 575.027 794.29 575.72 791.036 575.72C787.303 575.72 783.89 574.76 780.796 572.84C777.703 570.92 775.25 568.227 773.436 564.76C771.676 561.24 770.796 557.213 770.796 552.68C770.796 548.2 771.676 544.227 773.436 540.76C775.25 537.293 777.676 534.627 780.716 532.76C783.81 530.893 787.25 529.96 791.036 529.96ZM805.676 552.84C805.676 550.12 805.143 547.8 804.076 545.88C803.01 543.907 801.57 542.413 799.756 541.4C797.943 540.333 795.996 539.8 793.916 539.8C791.836 539.8 789.916 540.307 788.156 541.32C786.396 542.333 784.956 543.827 783.836 545.8C782.77 547.72 782.236 550.013 782.236 552.68C782.236 555.347 782.77 557.693 783.836 559.72C784.956 561.693 786.396 563.213 788.156 564.28C789.97 565.347 791.89 565.88 793.916 565.88C795.996 565.88 797.943 565.373 799.756 564.36C801.57 563.293 803.01 561.8 804.076 559.88C805.143 557.907 805.676 555.56 805.676 552.84ZM852.855 530.04C856.215 530.04 859.202 530.787 861.815 532.28C864.428 533.72 866.455 535.88 867.895 538.76C869.388 541.587 870.135 545 870.135 549V575H858.935V550.52C858.935 547 858.055 544.307 856.295 542.44C854.535 540.52 852.135 539.56 849.095 539.56C846.002 539.56 843.548 540.52 841.735 542.44C839.975 544.307 839.095 547 839.095 550.52V575H827.895V515.8H839.095V536.2C840.535 534.28 842.455 532.787 844.855 531.72C847.255 530.6 849.922 530.04 852.855 530.04ZM893.826 539.88V561.32C893.826 562.813 894.172 563.907 894.866 564.6C895.612 565.24 896.839 565.56 898.546 565.56H903.746V575H896.706C887.266 575 882.546 570.413 882.546 561.24V539.88H877.266V530.68H882.546V519.72H893.826V530.68H903.746V539.88H893.826ZM953.001 551.88C953.001 553.48 952.895 554.92 952.681 556.2H920.281C920.548 559.4 921.668 561.907 923.641 563.72C925.615 565.533 928.041 566.44 930.921 566.44C935.081 566.44 938.041 564.653 939.801 561.08H951.881C950.601 565.347 948.148 568.867 944.521 571.64C940.895 574.36 936.441 575.72 931.161 575.72C926.895 575.72 923.055 574.787 919.641 572.92C916.281 571 913.641 568.307 911.721 564.84C909.855 561.373 908.921 557.373 908.921 552.84C908.921 548.253 909.855 544.227 911.721 540.76C913.588 537.293 916.201 534.627 919.561 532.76C922.921 530.893 926.788 529.96 931.161 529.96C935.375 529.96 939.135 530.867 942.441 532.68C945.801 534.493 948.388 537.08 950.201 540.44C952.068 543.747 953.001 547.56 953.001 551.88ZM941.401 548.68C941.348 545.8 940.308 543.507 938.281 541.8C936.255 540.04 933.775 539.16 930.841 539.16C928.068 539.16 925.721 540.013 923.801 541.72C921.935 543.373 920.788 545.693 920.361 548.68H941.401ZM972.376 537.56C973.816 535.213 975.683 533.373 977.976 532.04C980.323 530.707 982.99 530.04 985.976 530.04V541.8H983.016C979.496 541.8 976.83 542.627 975.016 544.28C973.256 545.933 972.376 548.813 972.376 552.92V575H961.176V530.68H972.376V537.56ZM1010.48 575.72C1006.85 575.72 1003.6 575.08 1000.72 573.8C997.84 572.467 995.547 570.68 993.84 568.44C992.187 566.2 991.28 563.72 991.12 561H1002.4C1002.61 562.707 1003.44 564.12 1004.88 565.24C1006.37 566.36 1008.21 566.92 1010.4 566.92C1012.53 566.92 1014.19 566.493 1015.36 565.64C1016.59 564.787 1017.2 563.693 1017.2 562.36C1017.2 560.92 1016.45 559.853 1014.96 559.16C1013.52 558.413 1011.2 557.613 1008 556.76C1004.69 555.96 1001.97 555.133 999.84 554.28C997.76 553.427 995.947 552.12 994.4 550.36C992.907 548.6 992.16 546.227 992.16 543.24C992.16 540.787 992.853 538.547 994.24 536.52C995.68 534.493 997.707 532.893 1000.32 531.72C1002.99 530.547 1006.11 529.96 1009.68 529.96C1014.96 529.96 1019.17 531.293 1022.32 533.96C1025.47 536.573 1027.2 540.12 1027.52 544.6H1016.8C1016.64 542.84 1015.89 541.453 1014.56 540.44C1013.28 539.373 1011.55 538.84 1009.36 538.84C1007.33 538.84 1005.76 539.213 1004.64 539.96C1003.57 540.707 1003.04 541.747 1003.04 543.08C1003.04 544.573 1003.79 545.72 1005.28 546.52C1006.77 547.267 1009.09 548.04 1012.24 548.84C1015.44 549.64 1018.08 550.467 1020.16 551.32C1022.24 552.173 1024.03 553.507 1025.52 555.32C1027.07 557.08 1027.87 559.427 1027.92 562.36C1027.92 564.92 1027.2 567.213 1025.76 569.24C1024.37 571.267 1022.35 572.867 1019.68 574.04C1017.07 575.16 1014 575.72 1010.48 575.72Z" fill="#F6F6F6"/>
</g>
<defs>
<clipPath id="clip0_1_7983">
<rect width="1410" height="840" fill="white"/>
</clipPath>
</defs>
</svg>
