<svg width="30" height="38" viewBox="0 0 30 38" fill="none" xmlns="http://www.w3.org/2000/svg">
<g filter="url(#filter0_d_1_1538)">
<path fill-rule="evenodd" clip-rule="evenodd" d="M17 7.00002C17.0001 6.78019 16.9278 6.56644 16.7942 6.39185C16.6606 6.21726 16.4732 6.09156 16.261 6.03418C16.0488 5.9768 15.8236 5.99094 15.6202 6.07443C15.4169 6.15791 15.2467 6.30609 15.136 6.49602L8.13599 18.496C8.04731 18.648 8.0003 18.8207 7.9997 18.9966C7.9991 19.1726 8.04494 19.3456 8.13259 19.4981C8.22024 19.6507 8.34659 19.7775 8.49889 19.8656C8.65118 19.9537 8.82404 20.0001 8.99999 20H13V27C12.9999 27.2199 13.0722 27.4336 13.2058 27.6082C13.3394 27.7828 13.5268 27.9085 13.739 27.9659C13.9512 28.0232 14.1764 28.0091 14.3798 27.9256C14.5831 27.8421 14.7533 27.694 14.864 27.504L21.864 15.504C21.9527 15.352 21.9997 15.1794 22.0003 15.0034C22.0009 14.8275 21.955 14.6545 21.8674 14.5019C21.7797 14.3493 21.6534 14.2226 21.5011 14.1345C21.3488 14.0463 21.1759 14 21 14H17V7.00002Z" fill="url(#paint0_linear_1_1538)"/>
</g>
<defs>
<filter id="filter0_d_1_1538" x="-5" y="-1" width="40" height="40" filterUnits="userSpaceOnUse" color-interpolation-filters="sRGB">
<feFlood flood-opacity="0" result="BackgroundImageFix"/>
<feColorMatrix in="SourceAlpha" type="matrix" values="0 0 0 0 0 0 0 0 0 0 0 0 0 0 0 0 0 0 127 0" result="hardAlpha"/>
<feOffset dy="2"/>
<feGaussianBlur stdDeviation="4"/>
<feComposite in2="hardAlpha" operator="out"/>
<feColorMatrix type="matrix" values="0 0 0 0 1 0 0 0 0 0.87075 0 0 0 0 0.4125 0 0 0 0.55 0"/>
<feBlend mode="normal" in2="BackgroundImageFix" result="effect1_dropShadow_1_1538"/>
<feBlend mode="normal" in="SourceGraphic" in2="effect1_dropShadow_1_1538" result="shape"/>
</filter>
<linearGradient id="paint0_linear_1_1538" x1="15" y1="5.99951" x2="15" y2="28.0005" gradientUnits="userSpaceOnUse">
<stop stop-color="#FFE99C"/>
<stop offset="1" stop-color="#F0B33B"/>
</linearGradient>
</defs>
</svg>
