<svg width="30" height="30" viewBox="0 0 30 30" fill="none" xmlns="http://www.w3.org/2000/svg">
<path d="M27 25.8999C27 25.3476 26.5523 24.8999 26 24.8999H5C3.89543 24.8999 3 25.7953 3 26.8999V26.9999H27V25.8999Z" fill="#252C34"/>
<rect width="19.8" height="12.9" transform="matrix(-1 0 0 1 24.9 12)" fill="url(#paint0_linear_1_1403)"/>
<path d="M15 15.8999H7.8C7.63431 15.8999 7.5 16.0342 7.5 16.1999V24.8999H15V15.8999Z" fill="#3888E6"/>
<path d="M15 15.5999H7.8C7.46863 15.5999 7.2 15.8685 7.2 16.1999H7.8H15V15.5999ZM7.5 24.8999H15H7.5ZM15 24.8999V15.8999V24.8999ZM7.8 15.5999C7.46863 15.5999 7.2 15.8685 7.2 16.1999V24.8999H7.8V16.1999V15.5999Z" fill="#D1DAE9"/>
<path d="M22.5 16.1999C22.5 16.0342 22.3657 15.8999 22.2 15.8999H15V24.8999H22.5V16.1999Z" fill="#2E7AD3"/>
<path d="M22.8 16.1999C22.8 15.8685 22.5314 15.5999 22.2 15.5999H15V16.1999H22.2H22.8ZM15 24.8999H22.5H15ZM22.8 24.8999V16.1999C22.8 15.8685 22.5314 15.5999 22.2 15.5999V16.1999V24.8999H22.8ZM15 15.8999V24.8999V15.8999Z" fill="#D1DAE9"/>
<circle cx="0.6" cy="0.6" r="0.6" transform="matrix(-1 0 0 1 16.8 19.8)" fill="#252C34"/>
<circle cx="0.6" cy="0.6" r="0.6" transform="matrix(-1 0 0 1 14.4 19.8)" fill="#252C34"/>
<path d="M24.9 3.1001C24.9 2.54781 24.4523 2.1001 23.9 2.1001H6.09999C5.54771 2.1001 5.09999 2.54781 5.09999 3.1001V3.9001H24.9V3.1001Z" fill="#F1F4FA"/>
<path d="M24.9 3.8999H5.1L3 10.9999H27L24.9 3.8999Z" fill="url(#paint1_linear_1_1403)"/>
<path d="M27 11H22.2V11.6C22.2 12.9255 23.2745 14 24.6 14C25.9255 14 27 12.9255 27 11.6V11Z" fill="#B93333"/>
<path d="M22.2 11H17.4V11.6C17.4 12.9255 18.4746 14 19.8 14C21.1255 14 22.2 12.9255 22.2 11.6V11Z" fill="#FF4343"/>
<path d="M17.4001 11H12.6001V11.6C12.6001 12.9255 13.6746 14 15.0001 14C16.3255 14 17.4001 12.9255 17.4001 11.6V11Z" fill="#B93333"/>
<path d="M12.6 11H7.80001V11.6C7.80001 12.9255 8.87452 14 10.2 14C11.5255 14 12.6 12.9255 12.6 11.6V11Z" fill="#FF4343"/>
<path d="M7.79996 11H2.99996V11.6C2.99996 12.9255 4.07447 14 5.39996 14C6.72544 14 7.79996 12.9255 7.79996 11.6V11Z" fill="#B93333"/>
<defs>
<linearGradient id="paint0_linear_1_1403" x1="19.701" y1="-1.33962" x2="2.44279" y2="12.7614" gradientUnits="userSpaceOnUse">
<stop stop-color="#F1F4FA"/>
<stop offset="1" stop-color="#ABB3C2"/>
</linearGradient>
<linearGradient id="paint1_linear_1_1403" x1="6" y1="2.9999" x2="22" y2="10.9999" gradientUnits="userSpaceOnUse">
<stop stop-color="#FF4343"/>
<stop offset="1" stop-color="#992828"/>
</linearGradient>
</defs>
</svg>
