<svg width="41" height="41" viewBox="0 0 41 41" fill="none" xmlns="http://www.w3.org/2000/svg">
<path d="M34.0552 5.91592L22.2019 7.20605L23.1958 16.3375L35.049 15.0473L34.0552 5.91592Z" fill="#663F30"/>
<path d="M26.1289 6.79359L22.1779 7.22363L23.1717 16.355L27.1228 15.925L26.1289 6.79359Z" fill="#543428"/>
<path d="M22.2343 35.2497L21.1744 20.5881C20.9977 18.1151 22.7642 15.907 25.2373 15.642L32.3031 14.8471C34.7761 14.5821 36.9842 16.3486 37.3375 18.8216L39.4572 33.3949C39.8105 36.3096 37.9558 38.8709 35.3061 39.1359L27.5336 40.0191C24.884 40.2841 22.4992 38.1643 22.2343 35.2497Z" fill="#EB4141"/>
<path d="M22.2343 35.2495L21.1744 20.5879C20.9977 18.1149 22.7642 15.9068 25.2373 15.6418L32.3031 14.8469C33.4513 14.7586 21.351 15.3768 21.616 20.3229C21.7043 22.266 22.2343 28.1837 23.3825 28.8019C28.1519 26.8588 32.2148 27.6537 32.4797 27.6537C34.4228 28.007 38.7507 28.7136 38.7507 28.7136C38.7507 28.7136 26.7387 28.272 23.2941 31.8049C20.8211 35.8678 27.5336 39.9306 27.5336 39.9306C24.884 40.2839 22.4992 38.1641 22.2343 35.2495Z" fill="#AB2020"/>
<path d="M32.7441 14.4937C35.7471 14.4937 38.3085 16.9667 38.8384 20.058C39.28 22.4427 39.6333 25.1807 39.015 26.064C37.8668 27.8304 30.2711 28.0954 29.4762 27.1238C28.7696 26.1523 28.1513 22.796 28.9462 22.0011C29.7411 21.2062 31.9492 21.4712 31.9492 21.4712C31.9492 21.4712 29.8295 17.7616 31.1543 15.0236C31.4193 14.582 32.0375 14.4937 32.7441 14.4937Z" fill="#C4C4C4"/>
<path d="M32.7441 14.4937C35.1288 14.582 31.5959 15.3769 31.9492 19.2631C32.2142 20.6763 32.7441 22.0011 32.7441 22.0011C32.7441 22.0011 30.0944 21.8245 29.5645 23.061C28.4163 24.8274 30.2711 28.0071 29.4762 27.0355C28.7696 26.064 28.1513 22.7077 28.9462 21.9128C29.7411 21.1179 31.9492 21.3829 31.9492 21.3829C31.9492 21.3829 29.8295 17.6733 31.1543 14.9353C31.4193 14.582 32.0375 14.4937 32.7441 14.4937Z" fill="#B8B8B8"/>
<path d="M27.8868 14.1405L28.5934 13.3456L29.3883 14.0521C29.4766 14.1405 29.6533 14.1405 29.7416 14.0521C29.8299 13.9638 29.8299 13.7872 29.7416 13.6989L28.9467 12.9923L29.6533 12.1974C29.7416 12.1091 29.7416 11.9324 29.6533 11.8441C29.5649 11.7558 29.3883 11.7558 29.3 11.8441L28.5934 12.639L27.7985 11.9324C27.7102 11.8441 27.5335 11.8441 27.4452 11.9324C27.4452 12.0207 27.3569 12.0207 27.3569 12.1091C27.3569 12.1974 27.3569 12.2857 27.4452 12.2857L28.2401 12.9923L27.5335 13.7872C27.5335 13.8755 27.4452 13.8755 27.4452 13.9638C27.4452 14.0522 27.4452 14.1405 27.5335 14.1405C27.6218 14.3171 27.7985 14.3171 27.8868 14.1405Z" fill="white"/>
<path d="M27.4453 10.3426L28.1519 9.54772L28.9468 10.2543C29.0351 10.3426 29.2117 10.3426 29.3001 10.2543C29.3884 10.166 29.3884 9.98933 29.3001 9.90101L28.5052 9.19441L29.2117 8.39951C29.3001 8.31119 29.3001 8.13455 29.2117 8.04622C29.1234 7.9579 28.9468 7.9579 28.8584 8.04622L28.1519 8.84112L27.357 8.13455C27.2686 8.04623 27.092 8.04623 27.0037 8.13455C27.0037 8.22287 26.9153 8.22286 26.9153 8.31118C26.9153 8.3995 26.9153 8.48784 27.0037 8.48784L27.7986 9.19441L27.092 9.98934C27.092 10.0777 27.0037 10.0776 27.0037 10.166C27.0037 10.2543 27.0037 10.3426 27.092 10.3426C27.1803 10.5193 27.357 10.4309 27.4453 10.3426Z" fill="white"/>
<path d="M22.1462 7.25117L33.9815 6.01465C33.8932 5.57304 33.5399 5.21973 33.01 5.21973L22.9411 6.27961C22.4995 6.27961 22.1462 6.72123 22.1462 7.25117Z" fill="#38221A"/>
<path d="M20.1145 12.1973C22.8525 13.5221 24.0891 16.79 23.2942 19.793C22.6759 22.1777 21.7927 24.7391 20.9094 25.3574C19.143 26.4173 12.0772 23.4143 11.8122 22.2661C11.5472 21.0296 12.4304 17.7616 13.4903 17.4083C14.5502 16.9667 16.4933 18.2032 16.4933 18.2032C16.4933 18.2032 16.14 13.8754 18.5247 12.0206C18.9663 11.844 19.4963 11.9323 20.1145 12.1973Z" fill="#C4C4C4"/>
<path d="M13.6963 1.20999L10.7027 9.89404L21.9753 13.7799L24.9688 5.09589L13.6963 1.20999Z" fill="#663F30"/>
<path d="M13.693 1.18411L10.6994 9.86816L14.4569 11.1635L17.4505 2.47941L13.693 1.18411Z" fill="#543428"/>
<path d="M1.83179 26.5943L7.13117 12.816C8.0144 10.4312 10.5758 9.28303 12.8722 10.0779L19.5847 12.3743C21.8811 13.1692 23.2059 15.7306 22.411 18.1153L18.1715 32.247C17.2883 34.985 14.5503 36.5748 11.9889 35.6916L4.5698 33.1302C2.09676 32.247 0.860238 29.244 1.83179 26.5943Z" fill="#EB4141"/>
<path d="M1.83179 26.5943L7.13117 12.816C8.0144 10.4312 10.5758 9.28303 12.8722 10.0779L19.5847 12.3743C20.6446 12.7276 11.0174 10.5196 9.16259 13.7875C8.45601 15.554 5.718 19.4402 4.03986 24.3863C2.00844 30.8338 4.5698 33.0419 4.5698 33.0419C2.09676 32.247 0.860238 29.244 1.83179 26.5943Z" fill="#AB2020"/>
<path d="M13.7549 1.15705L24.972 5.04325C25.1486 4.60164 24.8836 4.07169 24.442 3.89504L14.8148 0.627108C14.3732 0.450462 13.8433 0.715436 13.7549 1.15705Z" fill="#38221A"/>
</svg>
