<svg width="40" height="40" viewBox="0 0 40 40" fill="none" xmlns="http://www.w3.org/2000/svg">
<path d="M20 0C14.6969 0 9.60625 2.10844 5.85938 5.85781C2.10866 9.6087 0.00107328 14.6956 0 20C0 25.3022 2.10938 30.3928 5.85938 34.1422C9.60625 37.8916 14.6969 40 20 40C25.3031 40 30.3937 37.8916 34.1406 34.1422C37.8906 30.3928 40 25.3022 40 20C40 14.6978 37.8906 9.60719 34.1406 5.85781C30.3937 2.10844 25.3031 0 20 0Z" fill="url(#paint0_linear_1_4732)"/>
<path d="M8.51217 20.1795C14.4189 17.4984 18.3567 15.7308 20.3256 14.8767C25.9537 12.438 27.1217 12.0145 27.8846 12.0001C28.0524 11.9973 28.4259 12.0405 28.6696 12.2459C28.8722 12.419 28.9292 12.6532 28.9577 12.8177C28.983 12.9819 29.0178 13.3563 28.9893 13.6486C28.6855 16.9868 27.3655 25.0874 26.6944 28.8264C26.4127 30.4084 25.8524 30.9388 25.3111 30.9906C24.1336 31.1034 23.2409 30.1805 22.1014 29.4023C20.3192 28.1841 19.3126 27.4261 17.5811 26.2377C15.5806 24.8641 16.8784 24.1091 18.018 22.8754C18.3155 22.5525 23.5005 17.6392 23.5986 17.1936C23.6113 17.1378 23.6239 16.93 23.5036 16.8205C23.3865 16.7107 23.2124 16.7483 23.0858 16.778C22.9054 16.8202 20.0597 18.7822 14.5391 22.6636C13.732 23.2422 13.0007 23.5242 12.3423 23.5094C11.6206 23.4932 10.2278 23.0832 9.19273 22.7329C7.92656 22.3031 6.91679 22.0758 7.00542 21.3458C7.04974 20.9658 7.55304 20.5769 8.51217 20.1795Z" fill="#F6F6F6"/>
<defs>
<linearGradient id="paint0_linear_1_4732" x1="2000" y1="0" x2="2000" y2="4000" gradientUnits="userSpaceOnUse">
<stop stop-color="#2AABEE"/>
<stop offset="1" stop-color="#229ED9"/>
</linearGradient>
</defs>
</svg>
