<svg width="187" height="178" viewBox="0 0 187 178" fill="none" xmlns="http://www.w3.org/2000/svg">
<circle cx="80.2766" cy="40.2765" r="32.8856" transform="rotate(15 80.2766 40.2765)" fill="url(#paint0_linear_1_4843)"/>
<g filter="url(#filter0_i_1_4843)">
<circle cx="80.2766" cy="40.2766" r="26.0344" transform="rotate(15 80.2766 40.2766)" fill="url(#paint1_linear_1_4843)"/>
</g>
<circle cx="80.2767" cy="40.2765" r="25.5344" transform="rotate(15 80.2767 40.2765)" stroke="url(#paint2_linear_1_4843)" stroke-width="1.37023"/>
<path fill-rule="evenodd" clip-rule="evenodd" d="M139.392 92.17C157.53 74.0323 166.887 53.9821 160.291 47.3865C153.696 40.791 133.645 50.1478 115.508 68.2855C97.3699 86.4231 88.0132 106.473 94.6087 113.069C101.204 119.664 121.254 110.308 139.392 92.17ZM151.285 110.035L142.328 101.078C139.658 103.579 136.964 105.885 134.296 107.974L143.253 116.93C145.921 114.842 148.614 112.536 151.285 110.035ZM157.256 104.064L148.3 95.107C150.801 92.4363 153.106 89.7431 155.194 87.0751L164.151 96.0317C162.063 98.6998 159.757 101.393 157.256 104.064ZM169.142 89.0802L160.185 80.1235C162.372 76.7719 164.16 73.5331 165.502 70.5109L174.458 79.4676C173.117 82.4898 171.329 85.7286 169.142 89.0802ZM177.215 70.2819L168.258 61.3252C168.658 57.8966 168.041 55.1431 166.269 53.3647L175.218 62.3144C176.997 64.0926 177.615 66.8488 177.215 70.2819ZM109.536 127.997L100.579 119.04C102.357 120.818 105.114 121.437 108.546 121.037L117.503 129.993C114.07 130.394 111.314 129.775 109.536 127.997ZM126.689 127.237L117.732 118.28C120.754 116.939 123.993 115.151 127.344 112.964L136.301 121.921C132.95 124.107 129.711 125.896 126.689 127.237Z" fill="#F7F7F7"/>
<path d="M91.2634 124.111L120.516 141L99.4047 177.566L89.0007 161.808L70.1523 160.677L91.2634 124.111Z" fill="url(#paint3_linear_1_4843)"/>
<path d="M146 141L175.252 124.111L196.364 160.677L177.515 161.808L167.111 177.566L146 141Z" fill="url(#paint4_linear_1_4843)"/>
<g filter="url(#filter1_i_1_4843)">
<circle cx="133.333" cy="90.3333" r="63.3333" fill="url(#paint5_linear_1_4843)"/>
</g>
<circle cx="133.334" cy="90.3332" r="50.6667" fill="url(#paint6_linear_1_4843)"/>
<g filter="url(#filter2_i_1_4843)">
<circle cx="133.333" cy="90.3336" r="42.2222" fill="url(#paint7_linear_1_4843)"/>
</g>
<g filter="url(#filter3_d_1_4843)">
<path d="M124.763 105.222L118.978 96.8199L114.038 105.222H104.623L114.291 89.9799L104.285 75.4555H114.038L119.654 83.6466L124.467 75.4555H133.883L124.34 90.4444L134.516 105.222H124.763ZM160.873 85.3777C160.873 87.1792 160.451 88.8259 159.607 90.3177C158.79 91.7814 157.538 92.9636 155.849 93.8644C154.188 94.737 152.147 95.1733 149.727 95.1733H145.631V105.222H137.356V75.4555H149.727C152.119 75.4555 154.146 75.8777 155.807 76.7222C157.496 77.5666 158.762 78.7348 159.607 80.2266C160.451 81.7185 160.873 83.4355 160.873 85.3777ZM148.925 88.5866C151.261 88.5866 152.429 87.517 152.429 85.3777C152.429 83.2103 151.261 82.1266 148.925 82.1266H145.631V88.5866H148.925Z" fill="#F6F6F6"/>
</g>
<circle cx="179.5" cy="39.5" r="18.5" fill="url(#paint8_linear_1_4843)"/>
<g filter="url(#filter4_i_1_4843)">
<circle cx="179.5" cy="39.4998" r="14.6458" fill="url(#paint9_linear_1_4843)"/>
</g>
<circle cx="179.5" cy="39.4998" r="14.3645" stroke="url(#paint10_linear_1_4843)" stroke-width="0.770833"/>
<circle cx="18.5001" cy="140.5" r="18.5" fill="url(#paint11_linear_1_4843)"/>
<g filter="url(#filter5_i_1_4843)">
<circle cx="18.5001" cy="140.5" r="14.6458" fill="url(#paint12_linear_1_4843)"/>
</g>
<circle cx="18.5" cy="140.5" r="14.3645" stroke="url(#paint13_linear_1_4843)" stroke-width="0.770833"/>
<defs>
<filter id="filter0_i_1_4843" x="54.2357" y="14.2358" width="52.0817" height="54.268" filterUnits="userSpaceOnUse" color-interpolation-filters="sRGB">
<feFlood flood-opacity="0" result="BackgroundImageFix"/>
<feBlend mode="normal" in="SourceGraphic" in2="BackgroundImageFix" result="shape"/>
<feColorMatrix in="SourceAlpha" type="matrix" values="0 0 0 0 0 0 0 0 0 0 0 0 0 0 0 0 0 0 127 0" result="hardAlpha"/>
<feOffset dy="2.18644"/>
<feGaussianBlur stdDeviation="1.63983"/>
<feComposite in2="hardAlpha" operator="arithmetic" k2="-1" k3="1"/>
<feColorMatrix type="matrix" values="0 0 0 0 0 0 0 0 0 0 0 0 0 0 0 0 0 0 0.25 0"/>
<feBlend mode="normal" in2="shape" result="effect1_innerShadow_1_4843"/>
</filter>
<filter id="filter1_i_1_4843" x="70" y="27" width="126.667" height="126.667" filterUnits="userSpaceOnUse" color-interpolation-filters="sRGB">
<feFlood flood-opacity="0" result="BackgroundImageFix"/>
<feBlend mode="normal" in="SourceGraphic" in2="BackgroundImageFix" result="shape"/>
<feColorMatrix in="SourceAlpha" type="matrix" values="0 0 0 0 0 0 0 0 0 0 0 0 0 0 0 0 0 0 127 0" result="hardAlpha"/>
<feOffset dy="4.22222"/>
<feComposite in2="hardAlpha" operator="arithmetic" k2="-1" k3="1"/>
<feColorMatrix type="matrix" values="0 0 0 0 1 0 0 0 0 1 0 0 0 0 1 0 0 0 0.35 0"/>
<feBlend mode="normal" in2="shape" result="effect1_innerShadow_1_4843"/>
</filter>
<filter id="filter2_i_1_4843" x="91.1112" y="48.1113" width="84.4445" height="92.8888" filterUnits="userSpaceOnUse" color-interpolation-filters="sRGB">
<feFlood flood-opacity="0" result="BackgroundImageFix"/>
<feBlend mode="normal" in="SourceGraphic" in2="BackgroundImageFix" result="shape"/>
<feColorMatrix in="SourceAlpha" type="matrix" values="0 0 0 0 0 0 0 0 0 0 0 0 0 0 0 0 0 0 127 0" result="hardAlpha"/>
<feOffset dy="8.44445"/>
<feGaussianBlur stdDeviation="6.33333"/>
<feComposite in2="hardAlpha" operator="arithmetic" k2="-1" k3="1"/>
<feColorMatrix type="matrix" values="0 0 0 0 0 0 0 0 0 0 0 0 0 0 0 0 0 0 0.35 0"/>
<feBlend mode="normal" in2="shape" result="effect1_innerShadow_1_4843"/>
</filter>
<filter id="filter3_d_1_4843" x="100.063" y="75.4556" width="65.0331" height="38.211" filterUnits="userSpaceOnUse" color-interpolation-filters="sRGB">
<feFlood flood-opacity="0" result="BackgroundImageFix"/>
<feColorMatrix in="SourceAlpha" type="matrix" values="0 0 0 0 0 0 0 0 0 0 0 0 0 0 0 0 0 0 127 0" result="hardAlpha"/>
<feOffset dy="4.22222"/>
<feGaussianBlur stdDeviation="2.11111"/>
<feComposite in2="hardAlpha" operator="out"/>
<feColorMatrix type="matrix" values="0 0 0 0 0 0 0 0 0 0 0 0 0 0 0 0 0 0 0.25 0"/>
<feBlend mode="normal" in2="BackgroundImageFix" result="effect1_dropShadow_1_4843"/>
<feBlend mode="normal" in="SourceGraphic" in2="effect1_dropShadow_1_4843" result="shape"/>
</filter>
<filter id="filter4_i_1_4843" x="164.854" y="24.854" width="29.2916" height="30.5215" filterUnits="userSpaceOnUse" color-interpolation-filters="sRGB">
<feFlood flood-opacity="0" result="BackgroundImageFix"/>
<feBlend mode="normal" in="SourceGraphic" in2="BackgroundImageFix" result="shape"/>
<feColorMatrix in="SourceAlpha" type="matrix" values="0 0 0 0 0 0 0 0 0 0 0 0 0 0 0 0 0 0 127 0" result="hardAlpha"/>
<feOffset dy="1.23"/>
<feGaussianBlur stdDeviation="0.922496"/>
<feComposite in2="hardAlpha" operator="arithmetic" k2="-1" k3="1"/>
<feColorMatrix type="matrix" values="0 0 0 0 0 0 0 0 0 0 0 0 0 0 0 0 0 0 0.25 0"/>
<feBlend mode="normal" in2="shape" result="effect1_innerShadow_1_4843"/>
</filter>
<filter id="filter5_i_1_4843" x="3.85431" y="125.854" width="29.2917" height="30.5215" filterUnits="userSpaceOnUse" color-interpolation-filters="sRGB">
<feFlood flood-opacity="0" result="BackgroundImageFix"/>
<feBlend mode="normal" in="SourceGraphic" in2="BackgroundImageFix" result="shape"/>
<feColorMatrix in="SourceAlpha" type="matrix" values="0 0 0 0 0 0 0 0 0 0 0 0 0 0 0 0 0 0 127 0" result="hardAlpha"/>
<feOffset dy="1.23"/>
<feGaussianBlur stdDeviation="0.922496"/>
<feComposite in2="hardAlpha" operator="arithmetic" k2="-1" k3="1"/>
<feColorMatrix type="matrix" values="0 0 0 0 0 0 0 0 0 0 0 0 0 0 0 0 0 0 0.25 0"/>
<feBlend mode="normal" in2="shape" result="effect1_innerShadow_1_4843"/>
</filter>
<linearGradient id="paint0_linear_1_4843" x1="66.4044" y1="70.2033" x2="93.9022" y2="10.2073" gradientUnits="userSpaceOnUse">
<stop stop-color="#A3ABBA"/>
<stop offset="0.5" stop-color="white"/>
<stop offset="1" stop-color="#A3ABBA"/>
</linearGradient>
<linearGradient id="paint1_linear_1_4843" x1="54.6783" y1="44.9855" x2="108.75" y2="49.4317" gradientUnits="userSpaceOnUse">
<stop stop-color="#A1AAB7"/>
<stop offset="0.945" stop-color="#CFD5DE"/>
</linearGradient>
<linearGradient id="paint2_linear_1_4843" x1="80.2767" y1="14.7421" x2="80.2767" y2="65.8109" gradientUnits="userSpaceOnUse">
<stop stop-color="#B1B8C8"/>
<stop offset="0.485" stop-color="#E9EAF0"/>
<stop offset="1" stop-color="#B1B8C8"/>
</linearGradient>
<linearGradient id="paint3_linear_1_4843" x1="105.89" y1="132.556" x2="84.7785" y2="169.121" gradientUnits="userSpaceOnUse">
<stop stop-color="#2E0C0C"/>
<stop offset="1" stop-color="#942828"/>
</linearGradient>
<linearGradient id="paint4_linear_1_4843" x1="160.626" y1="132.556" x2="181.737" y2="169.121" gradientUnits="userSpaceOnUse">
<stop stop-color="#2E0C0C"/>
<stop offset="1" stop-color="#942828"/>
</linearGradient>
<linearGradient id="paint5_linear_1_4843" x1="158.667" y1="31.2222" x2="95.3333" y2="138.889" gradientUnits="userSpaceOnUse">
<stop stop-color="#FF4343"/>
<stop offset="0.25" stop-color="#FF4343"/>
<stop offset="0.5" stop-color="#FFB5B5"/>
<stop offset="0.75" stop-color="#C13F3F"/>
<stop offset="1" stop-color="#992828"/>
</linearGradient>
<linearGradient id="paint6_linear_1_4843" x1="143.889" y1="41.7776" x2="129.111" y2="138.889" gradientUnits="userSpaceOnUse">
<stop stop-color="white"/>
<stop offset="1" stop-color="#E2E2E2"/>
</linearGradient>
<linearGradient id="paint7_linear_1_4843" x1="141.778" y1="54.4447" x2="114.333" y2="124.111" gradientUnits="userSpaceOnUse">
<stop stop-color="#2C68B0"/>
<stop offset="1" stop-color="#27476D"/>
</linearGradient>
<linearGradient id="paint8_linear_1_4843" x1="171.696" y1="56.3355" x2="187.165" y2="22.5844" gradientUnits="userSpaceOnUse">
<stop stop-color="#A3ABBA"/>
<stop offset="0.5" stop-color="white"/>
<stop offset="1" stop-color="#A3ABBA"/>
</linearGradient>
<linearGradient id="paint9_linear_1_4843" x1="165.1" y1="42.1489" x2="195.518" y2="44.6501" gradientUnits="userSpaceOnUse">
<stop stop-color="#A1AAB7"/>
<stop offset="0.945" stop-color="#CFD5DE"/>
</linearGradient>
<linearGradient id="paint10_linear_1_4843" x1="179.5" y1="25.1353" x2="179.5" y2="53.8643" gradientUnits="userSpaceOnUse">
<stop stop-color="#B1B8C8"/>
<stop offset="0.485" stop-color="#E9EAF0"/>
<stop offset="1" stop-color="#B1B8C8"/>
</linearGradient>
<linearGradient id="paint11_linear_1_4843" x1="10.6962" y1="157.336" x2="26.1653" y2="123.584" gradientUnits="userSpaceOnUse">
<stop stop-color="#A3ABBA"/>
<stop offset="0.5" stop-color="white"/>
<stop offset="1" stop-color="#A3ABBA"/>
</linearGradient>
<linearGradient id="paint12_linear_1_4843" x1="4.09968" y1="143.149" x2="34.5179" y2="145.65" gradientUnits="userSpaceOnUse">
<stop stop-color="#A1AAB7"/>
<stop offset="0.945" stop-color="#CFD5DE"/>
</linearGradient>
<linearGradient id="paint13_linear_1_4843" x1="18.5" y1="126.135" x2="18.5" y2="154.864" gradientUnits="userSpaceOnUse">
<stop stop-color="#B1B8C8"/>
<stop offset="0.485" stop-color="#E9EAF0"/>
<stop offset="1" stop-color="#B1B8C8"/>
</linearGradient>
</defs>
</svg>
