<svg width="40" height="40" viewBox="0 0 40 40" fill="none" xmlns="http://www.w3.org/2000/svg">
<path d="M0.822598 10.379C1.07295 7.60315 3.22605 5.36177 5.98597 4.97317C15.2353 3.67086 24.7647 3.67086 34.014 4.97317C36.7739 5.36177 38.9271 7.60316 39.1774 10.379L39.5545 14.5597C39.8509 17.8466 39.8509 21.1534 39.5545 24.4403L39.1774 28.621C38.9271 31.3968 36.7739 33.6382 34.014 34.0268C24.7647 35.3291 15.2353 35.3291 5.98598 34.0268C3.22605 33.6382 1.07295 31.3968 0.822598 28.621L0.445551 24.4403C0.149118 21.1534 0.149119 17.8466 0.445551 14.5597L0.822598 10.379Z" fill="#F72222"/>
<path d="M24.394 16.8899C26.422 18.0391 26.4219 20.9609 24.394 22.1101L18.479 25.4619C16.4791 26.5952 14 25.1505 14 22.8518L14 16.1482C14 13.8495 16.4791 12.4048 18.479 13.5381L24.394 16.8899Z" fill="#F6F6F6"/>
</svg>
